<svg width="310" height="48" viewBox="0 0 310 48" fill="none" xmlns="http://www.w3.org/2000/svg">
<rect x="20.3205" y="32.4048" width="27.6856" height="2.56052" rx="1.28026" fill="#2A5275" stroke="#0E1821" stroke-width="0.480098"/>
<path d="M22.5608 34.9651H27.8419V37.7657C27.8419 38.2518 27.4478 38.6459 26.9617 38.6459H23.441C22.9549 38.6459 22.5608 38.2518 22.5608 37.7657V34.9651Z" fill="#0E1821" stroke="#0E1821" stroke-width="0.480098"/>
<path d="M40.4845 34.9651H45.7656V37.7657C45.7656 38.2518 45.3715 38.6459 44.8854 38.6459H41.3647C40.8786 38.6459 40.4845 38.2518 40.4845 37.7657V34.9651Z" fill="#0E1821" stroke="#0E1821" stroke-width="0.480098"/>
<path d="M20.9605 27.3638C20.9605 25.552 22.4293 24.0832 24.2412 24.0832H44.0852C45.8971 24.0832 47.3659 25.552 47.3659 27.3638V30.8845C47.3659 31.7242 46.6852 32.4048 45.8456 32.4048H22.4808C21.6412 32.4048 20.9605 31.7242 20.9605 30.8845V27.3638Z" fill="#4878A6" stroke="#0E1821" stroke-width="0.480098"/>
<path d="M40.2325 16.3214H28.0937C26.6643 16.3214 25.4081 17.2693 25.0159 18.6438L23.4409 24.163H44.8853L43.3103 18.6438C42.9181 17.2693 41.6619 16.3214 40.2325 16.3214Z" fill="#4878A6" stroke="#0E1821" stroke-width="0.480098" stroke-linecap="round" stroke-linejoin="round"/>
<path d="M40.8628 18.162H27.4632C27.1164 18.162 26.8091 18.3854 26.7021 18.7153L24.9611 24.0832H43.3649L41.6239 18.7153C41.5169 18.3854 41.2096 18.162 40.8628 18.162Z" fill="white" stroke="#0E1821" stroke-width="0.480098" stroke-linecap="round" stroke-linejoin="round"/>
<path d="M24.3006 21.2825H23.601C21.4798 21.2825 19.7602 19.5629 19.7602 17.4417V14.7212C19.7602 12.6 21.4798 10.8804 23.601 10.8804H42.4848" stroke="#0E1821" stroke-width="0.480098"/>
<path d="M43.2051 10.1602L43.2051 11.6004L42.4849 11.6004C42.3523 11.6004 42.2449 11.493 42.2449 11.3604L42.2449 10.4002C42.2449 10.2676 42.3523 10.1602 42.4849 10.1602L43.2051 10.1602Z" fill="#F15152" stroke="#0E1821" stroke-width="0.480098"/>
<path d="M45.4457 9.35998L45.4457 12.4006L43.4453 12.4006C43.3127 12.4006 43.2053 12.2931 43.2053 12.1606L43.2053 9.60003C43.2053 9.46746 43.3127 9.35998 43.4453 9.35998L45.4457 9.35998Z" fill="#F15152" stroke="#0E1821" stroke-width="0.480098"/>
<line x1="45.7655" y1="10.0002" x2="46.7257" y2="10.0002" stroke="#0E1821" stroke-width="0.480098" stroke-linecap="round"/>
<line x1="45.7655" y1="11.7604" x2="46.7257" y2="11.7604" stroke="#0E1821" stroke-width="0.480098" stroke-linecap="round"/>
<circle cx="25.1212" cy="28.7239" r="2.24046" fill="#FBB13C" stroke="#0E1821" stroke-width="0.480098"/>
<circle cx="43.2051" cy="28.7239" r="2.24046" fill="#FBB13C" stroke="#0E1821" stroke-width="0.480098"/>
<path d="M33.2903 25.7291C33.301 25.6928 33.3232 25.661 33.3537 25.6383C33.3842 25.6157 33.4212 25.6034 33.4592 25.6035H34.8674C34.8953 25.6035 34.9228 25.6101 34.9476 25.6227C34.9724 25.6354 34.9938 25.6537 35.0101 25.6762C35.0264 25.6987 35.0371 25.7247 35.0413 25.7521C35.0455 25.7795 35.0431 25.8075 35.0343 25.8338L34.4077 27.7038H35.7476C35.7805 27.7037 35.8128 27.7129 35.8408 27.7303C35.8688 27.7476 35.8913 27.7724 35.9058 27.8018C35.9203 27.8313 35.9262 27.8642 35.9228 27.8968C35.9194 27.9294 35.9069 27.9604 35.8866 27.9862L33.4223 31.1367C33.397 31.1691 33.3611 31.1917 33.3208 31.2005C33.2806 31.2093 33.2384 31.2038 33.2019 31.1848C33.1653 31.1659 33.1365 31.1348 33.1206 31.097C33.1047 31.0591 33.1027 31.0169 33.1149 30.9778L33.749 28.9289H32.5791C32.5517 28.9289 32.5248 28.9226 32.5003 28.9104C32.4758 28.8983 32.4545 28.8806 32.4381 28.8588C32.4217 28.837 32.4106 28.8118 32.4058 28.785C32.4009 28.7582 32.4024 28.7307 32.4101 28.7045L33.2903 25.7291ZM33.5909 25.9535L32.8143 28.5789H33.9873C34.0149 28.5789 34.042 28.5853 34.0666 28.5976C34.0912 28.61 34.1126 28.6279 34.1289 28.6499C34.1453 28.6719 34.1562 28.6975 34.1609 28.7245C34.1655 28.7515 34.1637 28.7792 34.1556 28.8054L33.7338 30.1681L35.3878 28.0538H34.1633C34.1355 28.0538 34.108 28.0472 34.0832 28.0345C34.0584 28.0219 34.0369 28.0036 34.0206 27.9811C34.0043 27.9586 33.9937 27.9326 33.9895 27.9052C33.9853 27.8778 33.9877 27.8498 33.9965 27.8235L34.6231 25.9535H33.5909Z" fill="white"/>
<path d="M63.8404 19.268C64.9498 19.268 65.8298 19.4547 66.4804 19.828C67.1418 20.1907 67.6164 20.788 67.9044 21.62C68.1924 22.452 68.3364 23.572 68.3364 24.98C68.3364 26.388 68.1924 27.508 67.9044 28.34C67.6164 29.172 67.1418 29.7747 66.4804 30.148C65.8298 30.5107 64.9498 30.692 63.8404 30.692C63.1151 30.692 62.5124 30.66 62.0324 30.596C61.5524 30.5427 61.0831 30.4467 60.6244 30.308L60.7844 29.108C61.2324 29.1613 61.6804 29.204 62.1284 29.236C62.5871 29.2573 63.1578 29.268 63.8404 29.268C64.5338 29.268 65.0831 29.1453 65.4884 28.9C65.9044 28.6547 66.2031 28.2387 66.3844 27.652C66.5658 27.0653 66.6618 26.2707 66.6724 25.268L61.9844 25.252V24.068L66.6564 24.052C66.6138 23.22 66.4911 22.5587 66.2884 22.068C66.0964 21.5667 65.7978 21.2147 65.3924 21.012C64.9978 20.7987 64.4804 20.692 63.8404 20.692C63.4031 20.692 63.0244 20.6973 62.7044 20.708C62.3844 20.708 62.0804 20.7187 61.7924 20.74C61.5151 20.7613 61.2164 20.788 60.8964 20.82L60.7204 19.604C61.1898 19.4867 61.6484 19.4013 62.0964 19.348C62.5444 19.2947 63.1258 19.268 63.8404 19.268ZM76.9971 22.692V30.5H75.4451V23.86H73.8771C73.5464 23.86 73.3117 23.9347 73.1731 24.084C73.0344 24.2227 72.9437 24.4627 72.9011 24.804C72.8157 25.4973 72.7197 26.2067 72.6131 26.932C72.5064 27.6573 72.3624 28.2813 72.1811 28.804C71.9891 29.4227 71.6691 29.876 71.2211 30.164C70.7837 30.452 70.2397 30.5907 69.5891 30.58L69.4291 29.412C69.8451 29.316 70.1491 29.188 70.3411 29.028C70.5331 28.868 70.6824 28.644 70.7891 28.356C70.9171 28.0467 71.0237 27.668 71.1091 27.22C71.1944 26.7613 71.2637 26.2973 71.3171 25.828C71.3704 25.348 71.4131 24.916 71.4451 24.532C71.5197 23.924 71.7171 23.4653 72.0371 23.156C72.3571 22.8467 72.8424 22.692 73.4931 22.692H76.9971ZM82.7312 22.5C83.9365 22.5 84.8058 22.7187 85.3392 23.156C85.8832 23.5827 86.1605 24.2173 86.1712 25.06C86.1712 25.764 86.0165 26.308 85.7072 26.692C85.3978 27.076 84.8912 27.268 84.1872 27.268H80.6992C80.7525 27.844 80.8645 28.2867 81.0352 28.596C81.2165 28.9053 81.4672 29.1187 81.7872 29.236C82.1178 29.3533 82.5392 29.412 83.0512 29.412C83.4672 29.412 83.9258 29.396 84.4272 29.364C84.9285 29.3213 85.3925 29.2733 85.8192 29.22L85.9632 30.228C85.7178 30.3453 85.4085 30.436 85.0352 30.5C84.6725 30.564 84.2992 30.612 83.9152 30.644C83.5312 30.676 83.1792 30.692 82.8592 30.692C81.9525 30.692 81.2165 30.5587 80.6512 30.292C80.0965 30.0147 79.6912 29.5773 79.4352 28.98C79.1898 28.372 79.0672 27.572 79.0672 26.58C79.0672 25.556 79.1898 24.7453 79.4352 24.148C79.6912 23.5507 80.0858 23.1293 80.6192 22.884C81.1632 22.628 81.8672 22.5 82.7312 22.5ZM82.7952 23.732C82.2832 23.732 81.8725 23.8067 81.5632 23.956C81.2645 24.0947 81.0458 24.34 80.9072 24.692C80.7685 25.0333 80.6938 25.524 80.6832 26.164H83.7872C84.1285 26.164 84.3525 26.052 84.4592 25.828C84.5658 25.604 84.6192 25.348 84.6192 25.06C84.6192 24.5907 84.4805 24.2547 84.2032 24.052C83.9258 23.8387 83.4565 23.732 82.7952 23.732ZM89.7059 22.692V24.948C89.7059 25.2573 89.6739 25.5613 89.6099 25.86H90.6179C91.1086 25.86 91.5033 25.7427 91.8019 25.508C92.1006 25.2733 92.3566 24.9213 92.5699 24.452C92.7833 23.9827 93.0179 23.396 93.2739 22.692H94.8739C94.5753 23.5027 94.3086 24.1747 94.0739 24.708C93.8393 25.2307 93.5619 25.6307 93.2419 25.908C92.9219 26.1747 92.4793 26.34 91.9139 26.404V26.468C92.3619 26.5107 92.7299 26.612 93.0179 26.772C93.3166 26.932 93.5726 27.172 93.7859 27.492C93.9993 27.8013 94.2073 28.2067 94.4099 28.708C94.6126 29.1987 94.8419 29.796 95.0979 30.5H93.4819C93.1619 29.636 92.8846 28.948 92.6499 28.436C92.4153 27.924 92.1486 27.5613 91.8499 27.348C91.5513 27.124 91.1406 27.0173 90.6179 27.028H89.6259C89.6793 27.284 89.7059 27.5293 89.7059 27.764V30.5H88.1539V22.692H89.7059ZM103.13 22.692V23.94H100.346V30.5H98.7938V23.94H96.0098V22.692H103.13ZM106.012 22.692L106.156 23.908C106.561 23.4813 107.052 23.14 107.628 22.884C108.204 22.628 108.774 22.5 109.34 22.5C110.31 22.5 111.004 22.852 111.42 23.556C111.836 24.26 112.044 25.2893 112.044 26.644C112.044 27.6573 111.937 28.4573 111.724 29.044C111.51 29.6307 111.185 30.052 110.748 30.308C110.31 30.564 109.761 30.692 109.1 30.692C108.598 30.692 108.102 30.628 107.612 30.5C107.132 30.372 106.678 30.164 106.252 29.876C106.294 30.3987 106.31 30.9373 106.3 31.492V33.684H104.764V22.692H106.012ZM108.812 23.796C108.396 23.796 107.996 23.892 107.612 24.084C107.228 24.2653 106.79 24.5373 106.3 24.9V28.964C106.748 29.092 107.148 29.1987 107.5 29.284C107.862 29.3693 108.246 29.412 108.652 29.412C109.089 29.412 109.436 29.3373 109.692 29.188C109.958 29.0387 110.15 28.7667 110.268 28.372C110.385 27.9667 110.444 27.3907 110.444 26.644C110.444 25.5667 110.316 24.8253 110.06 24.42C109.814 24.004 109.398 23.796 108.812 23.796ZM117.53 22.5C118.437 22.5 119.162 22.6333 119.706 22.9C120.261 23.1667 120.661 23.604 120.906 24.212C121.152 24.8093 121.274 25.604 121.274 26.596C121.274 27.5987 121.152 28.404 120.906 29.012C120.661 29.6093 120.261 30.0413 119.706 30.308C119.162 30.5747 118.437 30.708 117.53 30.708C116.613 30.708 115.877 30.5747 115.322 30.308C114.778 30.0413 114.384 29.6093 114.138 29.012C113.893 28.404 113.77 27.5987 113.77 26.596C113.77 25.604 113.893 24.8093 114.138 24.212C114.384 23.604 114.778 23.1667 115.322 22.9C115.877 22.6333 116.613 22.5 117.53 22.5ZM117.53 23.748C116.986 23.748 116.56 23.8333 116.25 24.004C115.941 24.1747 115.717 24.468 115.578 24.884C115.45 25.2893 115.386 25.86 115.386 26.596C115.386 27.332 115.45 27.908 115.578 28.324C115.717 28.74 115.941 29.0333 116.25 29.204C116.56 29.364 116.986 29.444 117.53 29.444C118.064 29.444 118.485 29.364 118.794 29.204C119.104 29.0333 119.322 28.74 119.45 28.324C119.578 27.908 119.642 27.332 119.642 26.596C119.642 25.86 119.578 25.2893 119.45 24.884C119.322 24.468 119.104 24.1747 118.794 24.004C118.485 23.8333 118.064 23.748 117.53 23.748ZM132.253 22.692C132.637 22.692 132.829 22.8787 132.829 23.252L133.149 30.5H131.709L131.421 23.86H131.165L129.293 29.124C129.251 29.284 129.181 29.4067 129.085 29.492C128.989 29.5773 128.856 29.62 128.685 29.62H127.613C127.304 29.62 127.101 29.4547 127.005 29.124L125.133 23.86H124.877L124.605 30.5H123.181L123.485 23.252C123.485 22.8787 123.683 22.692 124.077 22.692H125.613C125.923 22.692 126.12 22.8573 126.205 23.188L127.709 27.492C127.784 27.684 127.843 27.8707 127.885 28.052C127.939 28.2333 127.987 28.42 128.029 28.612H128.269C128.323 28.4093 128.371 28.2173 128.413 28.036C128.467 27.8547 128.525 27.6733 128.589 27.492L130.093 23.188C130.189 22.8573 130.392 22.692 130.701 22.692H132.253ZM138.765 22.5C139.671 22.5 140.397 22.6333 140.941 22.9C141.495 23.1667 141.895 23.604 142.141 24.212C142.386 24.8093 142.509 25.604 142.509 26.596C142.509 27.5987 142.386 28.404 142.141 29.012C141.895 29.6093 141.495 30.0413 140.941 30.308C140.397 30.5747 139.671 30.708 138.765 30.708C137.847 30.708 137.111 30.5747 136.557 30.308C136.013 30.0413 135.618 29.6093 135.373 29.012C135.127 28.404 135.005 27.5987 135.005 26.596C135.005 25.604 135.127 24.8093 135.373 24.212C135.618 23.604 136.013 23.1667 136.557 22.9C137.111 22.6333 137.847 22.5 138.765 22.5ZM138.765 23.748C138.221 23.748 137.794 23.8333 137.485 24.004C137.175 24.1747 136.951 24.468 136.813 24.884C136.685 25.2893 136.621 25.86 136.621 26.596C136.621 27.332 136.685 27.908 136.813 28.324C136.951 28.74 137.175 29.0333 137.485 29.204C137.794 29.364 138.221 29.444 138.765 29.444C139.298 29.444 139.719 29.364 140.029 29.204C140.338 29.0333 140.557 28.74 140.685 28.324C140.813 27.908 140.877 27.332 140.877 26.596C140.877 25.86 140.813 25.2893 140.685 24.884C140.557 24.468 140.338 24.1747 140.029 24.004C139.719 23.8333 139.298 23.748 138.765 23.748ZM151.008 18.708L151.344 19.892C150.906 20.1587 150.501 20.3453 150.128 20.452C149.765 20.548 149.402 20.6227 149.04 20.676C148.688 20.7187 148.309 20.7987 147.904 20.916C147.392 21.0653 146.986 21.268 146.688 21.524C146.4 21.7693 146.186 22.052 146.048 22.372C145.92 22.692 145.824 23.0227 145.76 23.364C145.706 23.6093 145.669 23.8333 145.648 24.036C145.626 24.2387 145.61 24.3987 145.6 24.516H145.632C145.76 24.26 145.925 24.0093 146.128 23.764C146.341 23.5187 146.64 23.3213 147.024 23.172C147.418 23.012 147.941 22.932 148.592 22.932C149.37 22.932 149.989 23.06 150.448 23.316C150.906 23.572 151.237 23.9773 151.44 24.532C151.642 25.0867 151.744 25.8067 151.744 26.692C151.744 27.524 151.642 28.2387 151.44 28.836C151.237 29.4333 150.869 29.892 150.336 30.212C149.813 30.532 149.072 30.692 148.112 30.692C147.248 30.692 146.565 30.5693 146.064 30.324C145.573 30.0787 145.21 29.7373 144.976 29.3C144.752 28.852 144.608 28.3293 144.544 27.732C144.48 27.124 144.448 26.468 144.448 25.764C144.448 24.6547 144.512 23.7 144.64 22.9C144.778 22.0893 145.056 21.428 145.472 20.916C145.888 20.3933 146.528 20.004 147.392 19.748C147.818 19.6093 148.224 19.5133 148.608 19.46C148.992 19.4067 149.376 19.332 149.76 19.236C150.154 19.14 150.57 18.964 151.008 18.708ZM148.192 24.164C147.584 24.164 147.125 24.26 146.816 24.452C146.506 24.6333 146.298 24.916 146.192 25.3C146.096 25.6733 146.048 26.1373 146.048 26.692C146.048 27.396 146.112 27.9507 146.24 28.356C146.368 28.7507 146.581 29.028 146.88 29.188C147.189 29.348 147.594 29.428 148.096 29.428C148.597 29.428 148.992 29.348 149.28 29.188C149.578 29.028 149.792 28.7507 149.92 28.356C150.048 27.9507 150.112 27.396 150.112 26.692C150.112 26.0307 150.053 25.5187 149.936 25.156C149.829 24.7827 149.632 24.5267 149.344 24.388C149.066 24.2387 148.682 24.164 148.192 24.164ZM160.834 22.692V30.5H159.442V25.524C159.442 25.3533 159.447 25.1827 159.458 25.012C159.479 24.8307 159.495 24.6387 159.506 24.436H159.458C159.394 24.596 159.308 24.7667 159.202 24.948C159.106 25.1187 159.01 25.268 158.914 25.396L155.122 30.5H153.826V22.692H155.218V27.684C155.218 27.8653 155.212 28.0413 155.202 28.212C155.191 28.372 155.18 28.5533 155.17 28.756H155.202C155.276 28.5853 155.362 28.42 155.458 28.26C155.564 28.1 155.666 27.956 155.762 27.828L159.554 22.692H160.834ZM169.919 22.692V30.5H168.367V23.86H166.799C166.468 23.86 166.234 23.9347 166.095 24.084C165.956 24.2227 165.866 24.4627 165.823 24.804C165.738 25.4973 165.642 26.2067 165.535 26.932C165.428 27.6573 165.284 28.2813 165.103 28.804C164.911 29.4227 164.591 29.876 164.143 30.164C163.706 30.452 163.162 30.5907 162.511 30.58L162.351 29.412C162.767 29.316 163.071 29.188 163.263 29.028C163.455 28.868 163.604 28.644 163.711 28.356C163.839 28.0467 163.946 27.668 164.031 27.22C164.116 26.7613 164.186 26.2973 164.239 25.828C164.292 25.348 164.335 24.916 164.367 24.532C164.442 23.924 164.639 23.4653 164.959 23.156C165.279 22.8467 165.764 22.692 166.415 22.692H169.919ZM179.365 22.692V30.5H177.973V25.524C177.973 25.3533 177.978 25.1827 177.989 25.012C178.01 24.8307 178.026 24.6387 178.037 24.436H177.989C177.925 24.596 177.84 24.7667 177.733 24.948C177.637 25.1187 177.541 25.268 177.445 25.396L173.653 30.5H172.357V22.692H173.749V27.684C173.749 27.8653 173.744 28.0413 173.733 28.212C173.722 28.372 173.712 28.5533 173.701 28.756H173.733C173.808 28.5853 173.893 28.42 173.989 28.26C174.096 28.1 174.197 27.956 174.293 27.828L178.085 22.692H179.365Z" fill="#070C11"/>
</svg>
