<svg width="117" height="24" viewBox="0 0 117 24" fill="none" xmlns="http://www.w3.org/2000/svg">
<rect width="117" height="24" rx="12" fill="#F37748"/>
<rect x="5" y="3" width="37" height="18" rx="9" fill="white"/>
<path d="M12.794 8.172C13.41 8.172 13.9373 8.22333 14.376 8.326C14.824 8.42867 15.1647 8.62933 15.398 8.928C15.6407 9.22667 15.762 9.67 15.762 10.258C15.762 10.6593 15.706 11.0373 15.594 11.392C15.4913 11.7467 15.314 12.1153 15.062 12.498C14.81 12.8713 14.4693 13.296 14.04 13.772L11.268 16.866C11.5107 16.8473 11.7673 16.8333 12.038 16.824C12.318 16.8147 12.584 16.81 12.836 16.81H16.112V18H9.77V17.23C9.77 17.1273 9.784 17.034 9.812 16.95C9.84 16.8567 9.88667 16.7727 9.952 16.698L12.752 13.534C13.368 12.8713 13.8207 12.2833 14.11 11.77C14.3993 11.2567 14.5347 10.7713 14.516 10.314C14.5067 9.99667 14.4273 9.768 14.278 9.628C14.138 9.47867 13.9327 9.38067 13.662 9.334C13.4007 9.28733 13.0833 9.264 12.71 9.264C12.4113 9.264 12.1267 9.26867 11.856 9.278C11.5853 9.28733 11.296 9.31067 10.988 9.348C10.6893 9.376 10.3393 9.42267 9.938 9.488L9.854 8.536C10.2927 8.43333 10.6753 8.35867 11.002 8.312C11.338 8.256 11.646 8.21867 11.926 8.2C12.2153 8.18133 12.5047 8.172 12.794 8.172ZM21.0753 8.158C21.906 8.158 22.564 8.33067 23.0493 8.676C23.5347 9.02133 23.88 9.56267 24.0853 10.3C24.3 11.0373 24.4073 11.994 24.4073 13.17C24.4073 14.346 24.3 15.3027 24.0853 16.04C23.88 16.7773 23.5347 17.3187 23.0493 17.664C22.564 18.0093 21.906 18.182 21.0753 18.182C20.254 18.182 19.6007 18.0093 19.1153 17.664C18.63 17.3187 18.28 16.7773 18.0653 16.04C17.86 15.3027 17.7573 14.346 17.7573 13.17C17.7573 11.994 17.86 11.0373 18.0653 10.3C18.28 9.56267 18.63 9.02133 19.1153 8.676C19.6007 8.33067 20.254 8.158 21.0753 8.158ZM21.0753 9.236C20.674 9.236 20.338 9.31067 20.0673 9.46C19.7967 9.6 19.5773 9.824 19.4093 10.132C19.2507 10.44 19.134 10.846 19.0593 11.35C18.994 11.8447 18.9613 12.4513 18.9613 13.17C18.9613 13.8793 18.994 14.486 19.0593 14.99C19.134 15.494 19.2507 15.9 19.4093 16.208C19.5773 16.516 19.7967 16.7447 20.0673 16.894C20.338 17.034 20.674 17.104 21.0753 17.104C21.4767 17.104 21.8127 17.034 22.0833 16.894C22.3633 16.7447 22.5827 16.516 22.7413 16.208C22.9093 15.9 23.026 15.494 23.0913 14.99C23.166 14.486 23.2033 13.8793 23.2033 13.17C23.2033 12.4513 23.166 11.8447 23.0913 11.35C23.026 10.846 22.9093 10.44 22.7413 10.132C22.5827 9.824 22.3633 9.6 22.0833 9.46C21.8127 9.31067 21.4767 9.236 21.0753 9.236ZM28.1949 8.158C28.7549 8.158 29.1982 8.256 29.5249 8.452C29.8609 8.63867 30.0989 8.942 30.2389 9.362C30.3789 9.782 30.4489 10.3373 30.4489 11.028C30.4489 11.7093 30.3789 12.26 30.2389 12.68C30.0989 13.1 29.8609 13.408 29.5249 13.604C29.1982 13.8 28.7549 13.898 28.1949 13.898C27.6442 13.898 27.2009 13.8 26.8649 13.604C26.5382 13.408 26.3049 13.1 26.1649 12.68C26.0249 12.26 25.9549 11.7093 25.9549 11.028C25.9549 10.3373 26.0249 9.782 26.1649 9.362C26.3049 8.942 26.5382 8.63867 26.8649 8.452C27.2009 8.256 27.6442 8.158 28.1949 8.158ZM28.1949 8.914C27.8589 8.914 27.5929 8.984 27.3969 9.124C27.2102 9.25467 27.0749 9.474 26.9909 9.782C26.9069 10.09 26.8649 10.5053 26.8649 11.028C26.8649 11.5507 26.9069 11.966 26.9909 12.274C27.0749 12.582 27.2102 12.806 27.3969 12.946C27.5929 13.0767 27.8589 13.142 28.1949 13.142C28.5402 13.142 28.8062 13.0767 28.9929 12.946C29.1889 12.806 29.3242 12.582 29.3989 12.274C29.4829 11.966 29.5249 11.5507 29.5249 11.028C29.5249 10.5053 29.4829 10.09 29.3989 9.782C29.3242 9.474 29.1889 9.25467 28.9929 9.124C28.8062 8.984 28.5402 8.914 28.1949 8.914ZM35.0829 8.34L28.8249 18H27.9849L34.2429 8.34H35.0829ZM34.9009 12.4C35.4609 12.4 35.9042 12.498 36.2309 12.694C36.5575 12.89 36.7909 13.198 36.9309 13.618C37.0709 14.0287 37.1409 14.5747 37.1409 15.256C37.1409 15.9373 37.0709 16.4927 36.9309 16.922C36.7909 17.342 36.5575 17.65 36.2309 17.846C35.9042 18.0327 35.4609 18.126 34.9009 18.126C34.3502 18.126 33.9069 18.0327 33.5709 17.846C33.2442 17.65 33.0109 17.342 32.8709 16.922C32.7309 16.4927 32.6609 15.9373 32.6609 15.256C32.6609 14.5747 32.7309 14.0287 32.8709 13.618C33.0109 13.198 33.2442 12.89 33.5709 12.694C33.9069 12.498 34.3502 12.4 34.9009 12.4ZM34.8869 13.156C34.5509 13.156 34.2849 13.2213 34.0889 13.352C33.8929 13.4827 33.7575 13.702 33.6829 14.01C33.6082 14.318 33.5709 14.7333 33.5709 15.256C33.5709 15.7787 33.6082 16.1987 33.6829 16.516C33.7575 16.824 33.8929 17.048 34.0889 17.188C34.2849 17.3187 34.5509 17.384 34.8869 17.384C35.2322 17.384 35.4982 17.3187 35.6849 17.188C35.8809 17.048 36.0209 16.824 36.1049 16.516C36.1889 16.1987 36.2309 15.7787 36.2309 15.256C36.2309 14.7333 36.1889 14.318 36.1049 14.01C36.0209 13.702 35.8809 13.4827 35.6849 13.352C35.4982 13.2213 35.2322 13.156 34.8869 13.156Z" fill="#070C11"/>
<path d="M58.186 13.772V15.088H47.812V13.772H58.186ZM66.7854 8.34V18H64.6574V11.154C64.6574 10.9767 64.6621 10.804 64.6714 10.636C64.6807 10.4587 64.7041 10.2813 64.7414 10.104L62.4454 10.692L62.1934 9.306L64.6574 8.34H66.7854ZM75.4998 8.144C76.4238 8.144 77.1565 8.30733 77.6978 8.634C78.2485 8.96067 78.6405 9.49267 78.8738 10.23C79.1165 10.958 79.2378 11.938 79.2378 13.17C79.2378 14.402 79.1165 15.3867 78.8738 16.124C78.6405 16.852 78.2485 17.3793 77.6978 17.706C77.1565 18.0327 76.4238 18.196 75.4998 18.196C74.5758 18.196 73.8385 18.0327 73.2878 17.706C72.7465 17.3793 72.3592 16.852 72.1258 16.124C71.8925 15.3867 71.7758 14.402 71.7758 13.17C71.7758 11.938 71.8925 10.958 72.1258 10.23C72.3592 9.49267 72.7465 8.96067 73.2878 8.634C73.8385 8.30733 74.5758 8.144 75.4998 8.144ZM75.4858 9.824C75.1778 9.824 74.9212 9.87533 74.7158 9.978C74.5105 10.0807 74.3472 10.2533 74.2258 10.496C74.1045 10.7387 74.0158 11.0793 73.9598 11.518C73.9132 11.9473 73.8898 12.498 73.8898 13.17C73.8898 13.8327 73.9132 14.3833 73.9598 14.822C74.0158 15.2607 74.1045 15.6013 74.2258 15.844C74.3472 16.0867 74.5105 16.2593 74.7158 16.362C74.9212 16.4647 75.1778 16.516 75.4858 16.516C75.8032 16.516 76.0645 16.4647 76.2698 16.362C76.4845 16.2593 76.6525 16.0867 76.7738 15.844C76.9045 15.6013 76.9932 15.2607 77.0398 14.822C77.0958 14.3833 77.1238 13.8327 77.1238 13.17C77.1238 12.498 77.0958 11.9473 77.0398 11.518C76.9932 11.0793 76.9045 10.7387 76.7738 10.496C76.6525 10.2533 76.4845 10.0807 76.2698 9.978C76.0645 9.87533 75.8032 9.824 75.4858 9.824ZM84.3319 8.144C85.2559 8.144 85.9885 8.30733 86.5299 8.634C87.0805 8.96067 87.4725 9.49267 87.7059 10.23C87.9485 10.958 88.0699 11.938 88.0699 13.17C88.0699 14.402 87.9485 15.3867 87.7059 16.124C87.4725 16.852 87.0805 17.3793 86.5299 17.706C85.9885 18.0327 85.2559 18.196 84.3319 18.196C83.4079 18.196 82.6705 18.0327 82.1199 17.706C81.5785 17.3793 81.1912 16.852 80.9579 16.124C80.7245 15.3867 80.6079 14.402 80.6079 13.17C80.6079 11.938 80.7245 10.958 80.9579 10.23C81.1912 9.49267 81.5785 8.96067 82.1199 8.634C82.6705 8.30733 83.4079 8.144 84.3319 8.144ZM84.3179 9.824C84.0099 9.824 83.7532 9.87533 83.5479 9.978C83.3425 10.0807 83.1792 10.2533 83.0579 10.496C82.9365 10.7387 82.8479 11.0793 82.7919 11.518C82.7452 11.9473 82.7219 12.498 82.7219 13.17C82.7219 13.8327 82.7452 14.3833 82.7919 14.822C82.8479 15.2607 82.9365 15.6013 83.0579 15.844C83.1792 16.0867 83.3425 16.2593 83.5479 16.362C83.7532 16.4647 84.0099 16.516 84.3179 16.516C84.6352 16.516 84.8965 16.4647 85.1019 16.362C85.3165 16.2593 85.4845 16.0867 85.6059 15.844C85.7365 15.6013 85.8252 15.2607 85.8719 14.822C85.9279 14.3833 85.9559 13.8327 85.9559 13.17C85.9559 12.498 85.9279 11.9473 85.8719 11.518C85.8252 11.0793 85.7365 10.7387 85.6059 10.496C85.4845 10.2533 85.3165 10.0807 85.1019 9.978C84.8965 9.87533 84.6352 9.824 84.3179 9.824ZM93.1639 8.144C94.0879 8.144 94.8206 8.30733 95.3619 8.634C95.9126 8.96067 96.3046 9.49267 96.5379 10.23C96.7806 10.958 96.9019 11.938 96.9019 13.17C96.9019 14.402 96.7806 15.3867 96.5379 16.124C96.3046 16.852 95.9126 17.3793 95.3619 17.706C94.8206 18.0327 94.0879 18.196 93.1639 18.196C92.2399 18.196 91.5026 18.0327 90.9519 17.706C90.4106 17.3793 90.0232 16.852 89.7899 16.124C89.5566 15.3867 89.4399 14.402 89.4399 13.17C89.4399 11.938 89.5566 10.958 89.7899 10.23C90.0232 9.49267 90.4106 8.96067 90.9519 8.634C91.5026 8.30733 92.2399 8.144 93.1639 8.144ZM93.1499 9.824C92.8419 9.824 92.5852 9.87533 92.3799 9.978C92.1746 10.0807 92.0112 10.2533 91.8899 10.496C91.7686 10.7387 91.6799 11.0793 91.6239 11.518C91.5772 11.9473 91.5539 12.498 91.5539 13.17C91.5539 13.8327 91.5772 14.3833 91.6239 14.822C91.6799 15.2607 91.7686 15.6013 91.8899 15.844C92.0112 16.0867 92.1746 16.2593 92.3799 16.362C92.5852 16.4647 92.8419 16.516 93.1499 16.516C93.4672 16.516 93.7286 16.4647 93.9339 16.362C94.1486 16.2593 94.3166 16.0867 94.4379 15.844C94.5686 15.6013 94.6572 15.2607 94.7039 14.822C94.7599 14.3833 94.7879 13.8327 94.7879 13.17C94.7879 12.498 94.7599 11.9473 94.7039 11.518C94.6572 11.0793 94.5686 10.7387 94.4379 10.496C94.3166 10.2533 94.1486 10.0807 93.9339 9.978C93.7286 9.87533 93.4672 9.824 93.1499 9.824ZM104.975 8.2C105.862 8.2 106.557 8.298 107.061 8.494C107.565 8.68067 107.925 9.00733 108.139 9.474C108.354 9.93133 108.461 10.5613 108.461 11.364C108.461 12.1667 108.359 12.7967 108.153 13.254C107.948 13.7113 107.612 14.038 107.145 14.234C106.679 14.4207 106.049 14.514 105.255 14.514C104.938 14.514 104.625 14.514 104.317 14.514C104.019 14.5047 103.72 14.4953 103.421 14.486C103.132 14.4767 102.843 14.4673 102.553 14.458C102.273 14.4393 101.989 14.4207 101.699 14.402C101.41 14.374 101.116 14.346 100.817 14.318L100.845 12.904C101.125 12.904 101.443 12.904 101.797 12.904C102.152 12.904 102.521 12.904 102.903 12.904C103.286 12.904 103.655 12.904 104.009 12.904C104.364 12.904 104.672 12.904 104.933 12.904C105.288 12.904 105.563 12.8573 105.759 12.764C105.965 12.6707 106.105 12.512 106.179 12.288C106.263 12.0547 106.305 11.7467 106.305 11.364C106.305 10.972 106.263 10.664 106.179 10.44C106.105 10.2067 105.965 10.0433 105.759 9.95C105.563 9.85667 105.288 9.81 104.933 9.81C104.383 9.81 103.921 9.81467 103.547 9.824C103.183 9.824 102.88 9.82867 102.637 9.838C102.395 9.84733 102.199 9.86133 102.049 9.88L101.853 8.34C102.143 8.312 102.39 8.28867 102.595 8.27C102.81 8.25133 103.02 8.23733 103.225 8.228C103.431 8.21867 103.669 8.214 103.939 8.214C104.219 8.20467 104.565 8.2 104.975 8.2ZM103.981 8.34V18H101.853V8.34H103.981ZM106.879 15.606L106.809 16.6H100.831L100.817 15.606H106.879Z" fill="white"/>
</svg>
